PathFileType	4	(X/Y/Z)	Patient4_TMGait_0pt3_02_left_11.trc.trc
DataRate	CameraRate	NumFrames	NumMarkers	Units	OrigDataRate	OrigDataStartFrame	OrigNumFrames
51.851851851852	51.851851851852	5	33	mm	51.851851851852	106	       141
Frame#	Time	Sacral			L.Shoulder			Chest			R.Shoulder			Neck			R.ASIS			L.ASIS			R.Thigh.Superior			R.Thigh.Lateral			R.Thigh.Inferior			R.Patella			L.Thigh.Superior			L.Thigh.Lateral			L.Thigh.Inferior			L.Patella			L.Shank.Superior			L.Shank.Lateral			L.Shank.Inferior			R.Shank.Superior			R.Shank.Lateral			R.Shank.Inferior			R.Heel			R.Midfoot.Superior			R.Midfoot.Lateral			R.Toe			L.Heel			L.Midfoot.Lateral			L.Midfoot.Superior			L.Toe			L.Elbow			L.Wrist			R.Elbow			R.Wrist			
		X1	Y1	Z1	X2	Y2	Z2	X3	Y3	Z3	X4	Y4	Z4	X5	Y5	Z5	X6	Y6	Z6	X7	Y7	Z7	X8	Y8	Z8	X9	Y9	Z9	X10	Y10	Z10	X11	Y11	Z11	X12	Y12	Z12	X13	Y13	Z13	X14	Y14	Z14	X15	Y15	Z15	X16	Y16	Z16	X17	Y17	Z17	X18	Y18	Z18	X19	Y19	Z19	X20	Y20	Z20	X21	Y21	Z21	X22	Y22	Z22	X23	Y23	Z23	X24	Y24	Z24	X25	Y25	Z25	X26	Y26	Z26	X27	Y27	Z27	X28	Y28	Z28	X29	Y29	Z29	X30	Y30	Z30	X31	Y31	Z31	X32	Y32	Z32	X33	Y33	Z33	

106	23.435000000000	728.069833670823	1002.171908986929	548.271899106986	956.698696383221	1427.936990026222	408.675298017903	1027.002229324967	1348.779356844502	581.561881380458	919.885090486920	1421.275526478829	741.962442104894	924.031190928313	1486.085744519877	565.394383950097	944.369141146895	932.029716358107	692.632000850537	959.787630371037	954.150003341036	418.539221701284	995.688084098009	736.163410586948	652.206146643562	915.663122961576	620.215316532901	698.905170323293	998.729517161778	574.611627605968	619.836771992555	1002.330310735701	481.568437279522	622.017069145799	1021.751813403095	754.004849127656	442.147730895741	969.294440483011	635.374594842901	356.281204370116	1056.613662591411	560.238427735167	428.192356082831	1061.187546234070	472.910407454490	416.469187211501	995.095621182227	413.894818033030	392.559886700726	859.230034432389	376.211226686074	327.906932025094	847.089706015952	241.072688242854	365.844410812112	961.937174384842	393.834313645745	622.682242481102	878.223147199429	296.576694044486	680.710969159843	908.456323089707	201.193310256055	613.468364221473	757.496451548738	43.460561121322	581.306980114782	931.490879450221	97.410757789062	615.085627307173	842.258131390745	37.125101423707	654.121936495440	1050.215469044338	44.219070279079	639.665256261307	658.093409497354	156.490574690672	382.142467344047	723.337533702717	136.636872409922	297.502150539474	825.885389548781	151.314814585920	326.596018456793	917.241207873663	57.680510387188	278.790143930037	963.840857367627	1072.690986575739	293.473134301761	1080.470311372004	845.133431830522	320.102172032858	885.883737076456	1073.580373308509	863.740487145350	1011.702434897197	852.386770158307	926.148214020331	
107	23.454285714286	726.123247702320	998.335925919733	550.359698258018	953.505118762655	1423.607963950954	406.694154107183	1025.752462246498	1345.270989204852	579.181860381904	920.623773682838	1418.478117889657	740.731571979182	922.875651551169	1482.635380096029	563.647843675983	944.644885625712	928.999930071626	692.021831078927	956.613726035216	951.195562191205	417.677338648413	997.759761960121	734.147286176086	649.189682075901	920.329043017774	617.126043239238	697.215626570560	1002.097309362620	572.444027800948	616.210290150448	1006.460674933610	478.340872150546	618.156260318636	1021.717310381349	753.392183028350	444.192426639102	972.502284402620	633.644031442182	358.767561789998	1059.764087330816	560.404641740995	432.610102564716	1066.581193021444	473.420190851239	420.983357243376	1003.065960968855	412.836167659834	395.880277868522	869.458108712733	369.592293395170	329.933799553091	862.615587209497	233.812198321853	367.703752525977	964.071602486942	390.738325280539	619.612202624155	879.446408336114	295.003351578541	679.089449358799	906.013613272669	199.229861220100	611.377015335067	751.848436335352	43.510836534199	581.154888092566	925.778419275184	97.040969443249	614.348706827530	836.529088917140	37.222581722648	654.000580691255	1044.565441862862	43.549767030799	639.588540899622	677.150711686370	141.323695158119	382.430211819683	743.924171856837	124.096677500594	298.338448954828	845.502529318362	143.073264386225	328.307161358491	941.144929834088	53.320620931939	281.371717817772	951.355725139970	1067.020623406428	294.406387076700	1045.614871719849	827.654334676948	311.623485025845	893.900020296259	1069.959262314528	863.142386173557	1034.118681218595	856.550602790721	920.907612956352	
108	23.473571428571	724.205539892617	994.511559138531	552.499316186153	950.126732541775	1419.216328754288	404.339062760642	1024.574884530407	1341.749496331591	576.299458571077	921.670003071245	1415.729421388968	739.106919227324	921.828003754226	1479.175271910459	561.512723916018	944.993623588778	925.966492747213	691.214053985955	953.218874553020	948.099610835152	416.671515331102	999.689819226647	732.027693294512	646.403362791250	924.658412784240	614.053500445114	695.638507253536	1005.216121659624	570.217573725438	612.850822985810	1010.215502904992	475.107405428242	614.583215985264	1021.569329451709	752.885547365763	446.235667002647	975.578708895930	631.969368347437	361.269040884415	1062.998440492427	560.775304663362	436.804974648635	1072.069540543197	474.172969616992	425.354106503943	1011.209287031023	411.963493873534	399.355830835625	879.983614130752	362.941798627736	332.473423770021	878.689760634104	226.802693543553	370.371100850000	965.896039035320	387.647754697390	616.807671211176	880.306431070630	293.425384433118	677.560009514725	903.394657271383	197.285712482689	609.515401495456	746.193186590204	43.573187245499	581.059608841762	920.033824639946	96.700364096941	613.693942844230	830.801592274799	37.291034000379	653.929281672788	1038.903112843783	42.947538260123	639.542874827707	697.153813871154	126.365102909797	384.041163338623	765.268368046184	111.674291277061	300.440938887997	865.728625869766	135.127976427169	331.095045703684	965.582637942145	49.397514382726	285.127416490498	938.392005302149	1061.995487494584	294.235333221418	1011.060967114076	813.763989375078	302.921888604171	902.164199640440	1066.556931336580	861.951380281314	1057.581263236624	862.758526177513	913.741270221066	
109	23.492857142857	722.400947199725	990.980221980275	554.642052139384	946.599560927608	1415.039122976344	401.641398527149	1023.500764521360	1338.470404315126	572.922151568582	923.055493651425	1413.264194776101	737.072297111474	920.900528972857	1475.952387839272	559.008026618129	945.409447554815	923.153852822068	690.237165490054	949.703185378745	945.080916036818	415.563595076584	1001.277057371913	729.906532925533	643.984646515125	928.258031557455	611.179030551673	694.243144294879	1007.723319841648	568.030639525300	609.911799628120	1013.159871826654	472.025674763214	611.449600085349	1021.317089201524	752.663725608009	448.025220594676	978.354315601018	630.558252824361	363.543600430010	1066.259021584014	561.518318399110	440.353783979427	1077.538453294663	475.359873674061	429.182570801734	1019.357549477875	411.495820688745	402.679025405195	890.610451139892	356.583335294753	335.322125935481	895.048107782620	220.412932743971	373.641579848730	967.059263513131	384.730819145801	614.376596898156	880.510118225119	291.939789125486	676.190715188338	900.459906647727	195.470051609348	607.950140249060	740.517220302886	43.649176284273	581.022152179998	914.255598571718	96.400737487417	613.143564113713	825.068549183559	37.333725605050	653.905823026022	1033.218859771742	42.431999263372	639.529405881119	717.829695064139	112.146042786797	386.908945102517	787.027875439968	99.860023901016	303.698863533985	886.228030078565	127.880201333369	334.766617211195	990.095021033190	46.267347644585	289.795899260951	924.819019402016	1057.945023553988	292.875561921453	977.507468982758	803.577698872340	294.236254954946	910.846390117008	1063.645114440806	860.209217200264	1081.815318407228	871.467742733001	904.641194926693	
110	23.512142857143	720.791552251326	988.013293997669	556.735466822703	942.972107397577	1411.345901550153	398.641016715081	1022.563191826712	1335.678432889004	569.070487613830	924.811366630394	1411.310623128154	734.619169773736	920.107379266528	1473.204402210765	556.160409263143	945.895211419289	920.776184374496	689.103174189868	946.184107133163	942.375757701862	414.370680435721	1002.348414785094	727.893746892155	641.974761121314	930.819113449104	608.678119322864	693.063108235947	1009.295438903945	565.984810196326	607.461925230832	1014.916364003465	469.248276077583	608.831135140392	1020.953116565352	752.876584183775	449.343348464229	980.656156113220	629.590465440671	365.380126822059	1069.418764277338	562.752751112060	442.924090483438	1082.806981079322	477.129874926711	432.154370646779	1027.296245482377	411.614946211526	405.577523858489	901.140954352693	350.780753528981	338.223521313676	911.427061888930	214.935666502617	377.242597853058	967.257386012853	382.147924027081	612.371055882807	879.828142240904	290.637648523192	675.029505701020	897.095150654785	193.883747174083	606.710449992872	734.810115377775	43.738282389117	581.039496699883	908.446242058663	96.150549095784	612.711459236950	819.324015565693	37.355556875025	653.925087481397	1027.505958526572	42.012135163345	639.544965191383	738.901905147238	99.080725484231	390.778101327097	808.918323545443	89.042394380016	307.855114751395	906.715292336236	121.640243080267	339.042410359346	1014.317515799661	44.202674784835	295.083050106804	910.601627151648	1055.159730500526	290.359327484044	945.557013125072	797.004142068842	285.790062558992	920.105898700129	1061.500993679966	857.958328449381	1106.461162181047	883.067002375161	893.641303711424	
